<?xml version="1.0" standalone="no"?>
<!DOCTYPE svg PUBLIC "-//W3C//DTD SVG 20010904//EN"
 "http://www.w3.org/TR/2001/REC-SVG-20010904/DTD/svg10.dtd">
<svg version="1.0" xmlns="http://www.w3.org/2000/svg"
 width="686.000000pt" height="70.000000pt" viewBox="0 0 686.000000 70.000000"
 preserveAspectRatio="xMidYMid meet">

<g transform="translate(0.000000,70.000000) scale(0.100000,-0.100000)"
fill="#000000" stroke="none">
<path d="M290 682 c-36 -10 -90 -31 -120 -47 -59 -33 -74 -62 -68 -133 3 -34
7 -38 53 -55 71 -27 204 -33 282 -14 83 22 167 65 226 117 39 35 45 45 35 57
-33 40 -198 93 -288 92 -30 0 -84 -8 -120 -17z"/>
<path d="M1980 490 c0 -120 4 -190 10 -190 6 0 10 70 10 190 0 120 -4 190 -10
190 -6 0 -10 -70 -10 -190z"/>
<path d="M1847 663 c-12 -11 -8 -23 8 -23 8 0 15 7 15 15 0 16 -12 20 -23 8z"/>
<path d="M2110 656 c0 -9 7 -16 16 -16 9 0 14 5 12 12 -6 18 -28 21 -28 4z"/>
<path d="M2447 663 c-12 -11 -8 -23 8 -23 8 0 15 7 15 15 0 16 -12 20 -23 8z"/>
<path d="M977 653 c-12 -11 -8 -355 3 -348 6 3 10 40 10 81 l0 74 90 0 c53 0
90 4 90 10 0 6 -37 10 -90 10 l-90 0 0 80 0 80 106 0 c67 0 103 4 99 10 -7 11
-208 14 -218 3z"/>
<path d="M2248 593 c-2 -21 -9 -29 -28 -32 l-25 -4 25 -6 c24 -7 25 -10 30
-115 4 -92 8 -110 24 -122 23 -16 64 -18 86 -4 11 7 4 10 -27 10 -57 0 -64 17
-61 133 l3 92 40 6 40 5 -40 5 c-35 3 -40 7 -43 32 -2 15 -7 27 -12 27 -5 0
-10 -12 -12 -27z"/>
<path d="M1314 561 c-36 -9 -54 -19 -54 -30 0 -5 19 -2 43 7 70 25 127 -1 127
-58 0 -30 -11 -34 -119 -42 -72 -6 -92 -92 -28 -124 36 -19 100 -14 127 11 16
15 18 14 26 -7 5 -15 9 13 11 86 4 103 2 111 -19 132 -27 26 -70 35 -114 25z
m116 -163 c0 -49 -33 -78 -91 -78 -38 0 -51 5 -63 22 -21 30 -20 44 4 68 16
16 33 20 85 20 l65 0 0 -32z"/>
<path d="M1624 559 c-52 -15 -77 -52 -82 -118 -4 -56 -3 -61 31 -97 33 -36 39
-39 90 -39 40 0 61 5 76 19 27 25 19 33 -11 12 -26 -19 -80 -21 -111 -5 -39
20 -57 51 -57 101 0 89 76 140 154 103 42 -20 59 -14 24 8 -32 21 -77 27 -114
16z"/>
<path d="M2645 563 c-38 -10 -64 -35 -81 -79 -19 -50 -14 -92 16 -135 36 -50
134 -63 186 -25 27 20 10 31 -18 12 -29 -20 -97 -21 -126 0 -26 18 -55 71 -47
84 3 6 55 10 116 10 121 0 122 1 95 65 -21 51 -86 82 -141 68z m108 -53 c48
-53 36 -65 -72 -68 -52 -1 -99 2 -104 7 -13 13 22 72 54 89 37 20 90 7 122
-28z"/>
<path d="M2900 553 c-29 -15 -36 -24 -38 -55 -4 -43 18 -62 83 -73 76 -13 106
-52 69 -89 -18 -18 -95 -22 -125 -5 -11 6 -25 8 -32 6 -7 -3 6 -12 28 -22 77
-33 165 -3 165 56 0 35 -26 54 -95 69 -59 13 -75 25 -75 56 0 44 64 67 126 44
31 -12 44 -6 17 8 -39 21 -87 23 -123 5z"/>
<path d="M662 511 c-58 -53 -140 -97 -217 -117 -67 -18 -210 -18 -271 1 -27 8
-53 15 -58 15 -13 0 2 -76 25 -131 20 -45 24 -48 70 -58 160 -35 336 13 455
122 48 44 53 53 60 103 3 31 3 68 -2 84 l-9 28 -53 -47z"/>
<path d="M1850 429 c0 -84 4 -128 10 -124 6 4 10 58 10 131 0 76 -4 124 -10
124 -6 0 -10 -50 -10 -131z"/>
<path d="M2110 436 c0 -73 4 -127 10 -131 6 -4 10 40 10 124 0 81 -4 131 -10
131 -6 0 -10 -48 -10 -124z"/>
<path d="M2450 429 c0 -84 4 -128 10 -124 6 4 10 58 10 131 0 76 -4 124 -10
124 -6 0 -10 -50 -10 -131z"/>
<path d="M651 289 c-93 -83 -257 -137 -379 -124 -34 4 -62 3 -62 -2 0 -16 83
-90 143 -128 l58 -36 47 27 c77 45 166 138 207 215 20 38 35 74 33 78 -2 5
-23 -9 -47 -30z"/>
<path d="M990 160 c-11 -11 -20 -26 -20 -33 0 -19 30 -43 63 -51 46 -11 34
-36 -18 -36 -47 0 -58 -12 -26 -30 46 -24 111 2 111 44 0 28 -15 42 -53 51
-54 14 -41 49 15 38 21 -4 28 -2 28 10 0 32 -70 37 -100 7z"/>
<path d="M2133 170 c-36 -15 -28 -33 10 -26 21 4 40 1 52 -7 23 -18 11 -37
-23 -37 -35 0 -72 -26 -72 -49 0 -10 9 -26 21 -36 17 -16 24 -17 51 -7 21 7
36 8 43 2 19 -16 25 0 25 71 0 59 -3 70 -22 83 -25 18 -52 19 -85 6z m77 -105
c0 -18 -37 -38 -56 -31 -20 8 -18 34 4 39 35 9 52 7 52 -8z"/>
<path d="M2555 170 c-11 -4 -33 -5 -48 -3 l-28 6 3 -84 c2 -67 6 -84 18 -84
11 0 16 14 18 58 3 50 6 59 27 69 41 19 55 5 55 -55 0 -34 5 -59 13 -66 22
-17 27 -3 27 70 0 59 -3 70 -22 83 -25 18 -34 18 -63 6z"/>
<path d="M2909 151 c-20 -20 -29 -39 -29 -61 0 -40 47 -90 85 -90 38 0 85 50
85 90 0 40 -47 90 -85 90 -16 0 -38 -12 -56 -29z m89 -23 c7 -7 12 -24 12 -38
0 -31 -17 -50 -45 -50 -28 0 -45 19 -45 50 0 31 17 50 45 50 12 0 26 -5 33
-12z"/>
<path d="M1340 110 c0 -51 4 -65 25 -85 30 -31 66 -32 101 -2 23 20 27 31 28
82 1 49 -2 60 -16 63 -15 3 -18 -4 -18 -43 0 -58 -14 -85 -44 -85 -29 0 -36
16 -36 81 0 42 -3 49 -20 49 -18 0 -20 -7 -20 -60z"/>
<path d="M1737 164 c-13 -13 5 -24 39 -24 19 0 34 -3 34 -6 0 -3 -18 -27 -40
-52 -22 -25 -39 -50 -37 -55 7 -22 35 -30 80 -23 61 9 64 34 5 38 l-43 3 43
46 c59 65 57 79 -16 79 -32 0 -62 -3 -65 -6z"/>
</g>
</svg>
